<mxfile host="app.diagrams.net" modified="2023-11-14T09:16:41.141Z" agent="Mozilla/5.0 (Windows NT 10.0; Win64; x64) AppleWebKit/537.36 (KHTML, like Gecko) Chrome/119.0.0.0 Safari/537.36" etag="rjjQQXaI7KjXKaCJlrUm" version="22.1.0" type="google">
  <diagram name="Trang-1" id="doo-r3086rPX-8Jpa7N_">
    <mxGraphModel grid="1" page="1" gridSize="10" guides="1" tooltips="1" connect="1" arrows="1" fold="1" pageScale="1" pageWidth="827" pageHeight="1169" math="0" shadow="0">
      <root>
        <mxCell id="0" />
        <mxCell id="1" parent="0" />
        <mxCell id="bQVITt6lPZ6QNUbudgDY-1" value="" style="shape=image;verticalLabelPosition=bottom;labelBackgroundColor=default;verticalAlign=top;aspect=fixed;imageAspect=0;image=data:image/jpeg,/9j/4AAQSkZJRgABAQEAYABgAAD//gA+Q1JFQVRPUjogZ2QtanBlZyB2MS4wICh1c2luZyBJSkcgSlBFRyB2NjIpLCBkZWZhdWx0IHF1YWxpdHkK/9sAQwAIBgYHBgUIBwcHCQkICgwUDQwLCwwZEhMPFB0aHx4dGhwcICQuJyAiLCMcHCg3KSwwMTQ0NB8nOT04MjwuMzQy/9sAQwEJCQkMCwwYDQ0YMiEcITIyMjIyMjIyMjIyMjIyMjIyMjIyMjIyMjIyMjIyMjIyMjIyMjIyMjIyMjIyMjIyMjIy/8AAEQgCWAJYAwEiAAIRAQMRAf/EABwAAQABBQEBAAAAAAAAAAAAAAABAgMEBQYHCP/EAEAQAQABAQIIDAYBBAEEAwEAAAABAhFRAwQGEhMxUpEFBxQVF1NUYXSTsdI1NjdBc5IyIXKh8HEWIkNVM0LxY//EABoBAQEBAQEBAQAAAAAAAAAAAAABAgUDBAb/xAAmEQEAAQMDBQEAAwEBAAAAAAAAAQIREwMSUTEyUmGRFCEiQTME/9oADAMBAAIRAxEAPwDV5N8WfDGVHA9PCeJY3iODwNVdVEU4auuKrY16qZhuOg/KLt/BXmYT2O94nvkDA+Iwvq74HgnQflH2/grzMJ7DoPyi7fwV5mE9j3sB4J0H5Rdv4K8zCew6D8ou38F+ZhPY97AeCdB+UXb+CvMwnsOg/KLt/BfmYT2PewHgnQflF2/gvzMJ7DoPyi7fwV5mE9j3sB4J0H5Rdv4K8zCew6D8ou38FeZhPY97AeCdB+UXb+CvMwnsOg/KLt/BXmYT2PewHgnQflF2/grzMJ7DoPyi7fwV5mE9j3sB4J0H5Rdv4K8zCew6D8ou38FeZhPY97AeCdB+UXb+CvMwnsOg/KLt/BXmYT2PewHgnQflH2/grzMJ7DoPyi7fwV5mE9j3tAPBeg/KPt/BXmYT2HQflF2/grzMJ7HvQDwXoPyi7fwV5mE9h0H5Rdv4K8zCex70kHgnQflH2/grzMJ7DoPyi7fwV5mE9j3tAPBeg/KLt/BXmYT2HQflF2/grzMJ7HvQDwXoPyi7fwV5mE9h0H5R9v4L8zCex72A8E6D8ou38FeZhPYdB+UXb+CvMwnse9gPBOg/KLt/BXmYT2HQflF2/grzMJ7HvQDwXoPyj7fwV5mE9h0H5R9v4K8zCex70A8F6D8ou38FeZhPYdB+UXb+CvMwnse9gPBOg/KLt/BfmYT2HQflF2/grzMJ7HvYDwToPyi7fwV5mE9h0H5Rdv4L8zCex72A8E6D8ou38FeZhPYdB+UXb+CvMwnse9gPBOg/KLt/BXmYT2HQflF2/grzMJ7HvYDwToPyi7fwV5mE9h0H5Rdv4L8zCex72A8E6D8ov/YcFeZhPYdB+UXb+CvMwnse9gPBOg/KLt/BXmYT2HQflF2/grzMJ7HvYDwToPyi7fwV5mE9h0H5R9v4K8zCex72A8E6D8ou38FeZhPYdB+UXb+CvMwnse9gPBOg/KLt/BXmYT2HQflF2/grzMJ7HvYDwToPyi7fwV5mE9h0H5Rdv4K8zCex72A8E6D8ou38FeZhPYdB+UXb+CvMwnse9gPBOg/KLt/BXmYT2HQflF/7DgrzMJ7HvYDwToPyj7fwV5mE9h0H5Rdv4L8zCex72A8E6D8ou38FeZhPYdB+UXb+CvMwnse9gPBOg/KLt/BXmYT2HQflF2/grzMJ7HvYDwToPyi/9hwV5mE9h0H5Rdv4K8zCex72A8E6D8ou38FeZhPYPewHA8T/AMgYHxGF9XfOB4nvkDA+Iwvq74AAALYRbF4JEWxeWxeF0iLYvLYvC6RFsXlsXhdIi2Ly2LwukRbF5bF4XSIti+C2LwukRbF5bF4XSgti8ti8LgWxeWxeFwLYvLYvC6UFsXlsXhcC2Ly2LwulBbF5bF4XSgti8ti8LgWxeWxeFwLYvLYvC6RFsXlsXhdIi2Ly2LwukRbF5bF4XSIti8ti8LpEWxeWxeF0iLYvLYvC6RFsXlsXhdIi2Ly2LwukRbF5bF4XSIti8ti8LpEWxeWxeF0iLYvLYvC6RFsXlsXhdIi2Ly2LwukRbF5bF4XSIti8ti8LpEWxeWxeF0iLYvLYvC6RFsXgXcFxPfIGB8RhfV3zgeJ75AwPiML6u+AJ1BOoHiWUvCeM4LhiqmmqmzMp+zUc743tU/qy8qPjVf8AZS0z7qYiz8vq6lW+f5Z3O+N7VP6nO+N7VP6sEW0PLJVyzud8b2qf1Od8b2qf1YIWgyVcthRwvjefH/dT+q9zrjW1TuavB/zhfeVcfy869Wq/Vm8641tU7jnXGtqncwhljLXyzedca2qdyedca2qdzBAy18s3nXGtqncor4WxrO/lT+rFW6/5S1TH8rTq1X6sznbG9qn9TnbG9qn9WCN2hvLVyzudsb2qf1Odsb2qf1YIWgyVcs7nbG9qn9VVPC2NbVO5r1VKTEJOrVy2HO2NbVP6nO2NbVO5gjNmctfLO52xrap3HO2NbVO5ghYyV8s7nbGtqncieFsasn/up/VhInVJaFy1csmeF8bt/lT+qOd8b2qf1YM6x62h65KuWdzvje1T+pzvje1T+rBC0GSrlnc743tU/qc743tU/qwQtBkq5Z3O+N7VP6o53xvap/Vgi2gyVcs7nfG9qn9TnfG9qn9WCFoMlXLO53xvap/U53xvap/VghaDJVyzud8b2qf1XqeFsazY/wC6n9WrXqf4x/wxVEM16lXLP52xrap3J52xrap3MEYs88lfLO52xrap3HO2NbVP6sFBYyV8s/nbGtqncpq4Wxvap/VhqaliIXLVyzedsb2qdxztje1TuYCWrQ1lq5Z3O2N7VO452xvap3MALQZauWfztje1T+pztje1T+rAC0GWrlmTwvje1T+qOd8b2qf1YMoatDcalXLP53xvap/U53xvap/VghaDJVyzud8b2qdxzvje1T+rBQWgyVcthHC+N7VP6p53xvap/VgUpS0MzqVcs7nfG9qn9TnfG9qn9WCJaDJVyzud8b2qf1Od8b2qf1YIWgyVcs6eF8b2qf1W+d8b2qf1YsrbURDVOpVyzud8b2qf1Od8b2qf1YItoayVcs7nfG9qn9TnfG9qn9WCFoMlXLO53xvap/UYIkxBkq5ercT30/wPiML6u+cDxPfT/A+Iwvq758D9WE6gnUDwfKj41V/ZS0rc5U/Gq/7KWmffT0h+T1v+kgCvMABVg/5wvrGD/nC+8q+ryr6gDDAAAt1/yXFuv+TVPVqnqpAbaABRVSpVUkpKoBlkAAROqUonVILMhOser2AAEJAQAoAAAAL1P8YWV6n+MMVsVqgGGAABTVqVKaiBSlCWmhCUAAAokJQ29ISCASIAVQlFKWWZABAACVtclbahukAVoAAAJR6txPfT/A+Iwvq75wPE99P8D4jC+rvnOfrwnUE6geDZUfGqv7KWmbnKj41V/ZS0z76ekPyet/0kAV5gAKsH/OF9Ywf84X3lX1eVfUAYYAAFuv8AlK4t1/yap6tU9VIDbQAAqpUqqSSVQDLIAAidUpROqQWZ1hI9XsAAAAgBQAAAAXqf4wsr1P8AGGK2K1QDDAhICEVKlNWogUgNNAlAAAKJ1oTI29IEJAQJATSlEJZZkAEAAJW1yVtqG6QBWgAAAlHq3E99P8D4jC+rvnA8T30/wPiML6u+c5+vCdQTqB4LlTVZw3X/AGUtLnNxlV8br/spaV0KY/iH5bVpjfKrOM5SLZ57YVZxnKQsbYVxhIpm1Xymlj16ls2RPVqNKmr+ZZnKaTlNLDDFSYKGZymk5TSwwxUmChmcppUVYeJljCxp0wuGmGRpoNNDHF2QYqWRpoNNDHDZBipZGmhNOHiGMmDZBOlSyuUQcohjDOOGcNLJ5RScohjBjgw0snlEE4eLGMGODDSu6SDSQtDW2GtkLukg0kLQbYNkLukg0kLQbYNkLk4WIRpoWqlKxTDcaVMwv6aDTQsC7YXFSv6aDTQsBtgxUr2mhkUYWM2GCyKP4x/wxXTDy1NOmIX9JBpYWhjbDx2Qu6WDSwtBtg2Qu6WEVYSLFtTVqIphYohc0kGkhaG9sN44XdJBpIWg2wY4XdJBpIWg2wY4TOFi1Gmhaq1oa2w9Y06bL2mg00LIbYMVK9poNNCyG2FxUr8YaFWmhjwlNkMTpUr+mhGmhZDZBipXtNCdNCwGyDFSvThoW9NCiVCxTDdOlSvaaDTQsi7YaxUr2mg00LIbYMVK9poFkNsEaNMvYeJ76f4HxGF9XfOB4nvp/gfEYX1d85T9KE6gnUDwPKr43V/ZS0rdZVfG6v7KWldCnpD8vq98gDTzAAU16ltcr1LbUPWjoAK0ACgAgAAAAmEJgSUgCAAISAACAAAACmpSqqUtQ9KegAqgADIo/jH/AAx2RR/GP+GK3lq9FQDDwAAFNSpTVqCOqAGnoAKAALVWtCataGntHQAAABMJRCUZkAAABE6lCudShYbpAFaAAAAew8T30/wPiML6u+cDxPfT/A+Iwvq75yH6EJ1BOoHgeVXxur+ylpW6yq+N1/2UtK6FPSH5fV75AGnmAApr1La5XqW2oetHQAVsAAAEAAAAEwhMCSkAQEJAAAAQAAAAU1KVVSlqHpT0AFUQkBDJo/jH/DGZNH8Y/wCGK3lq9FQDDwAAFNWpUpq1BHVADT0AFAAFqrWhNWtDT2joAAgEgmEohIzIAgAAiVCuVCw3SAK0AAAA9h4nvp/gfEYX1d84Hie+n+B8RhfV3zkP0ITqAHgeVXxur+ylpLYbLK2uqOHa7J/8dLR6Sq906af6w/O6ujM1yyrYLYYukqvNJVe1sYwzyy7YvRbDF0lV5pKrzYYZ5ZFepbti9ZrwlVmtbz6r2opelGjNmVb3lvexc+q8z6r12t4ZZVsXlsXsXPqvM+q82mGWVb3ptYmfVeqiuqzWm1J0ZhkjHz6rzPqvNqYpZAx8+q8z6rzaYpZBDHz6r1VNVV5tSdKWRahazpM6b0szjldFnOm9OdN5YxyuptWc6SapsNpjleGNn1XmfVeu1cMskY2fVeZ9V5tMMskYufVeZ9V5tMMsiqVFsLFddV6jPqvWKXrTozZlWwWwxc+q8z6r12tYZ5ZVsFsMXPqvM+q82mGWVbDIomM2P6/Zrc+q9VpsJH/2/wAM1UTLFf8A5qqv9bK2L4LYvhrdNhNr/BpsJtf4ZxS8vx1ctlbF8FsXw1umwm1/g02E2v8ABik/HVy2VsXwiqYva7T4Ta/wqpwtcz/Wr/C45PyVR/N2bbBbDFz6rzPqvNqYZZVsFsMXPqvM+q82mGWVbBbDFz6rzPqvNphldqn+qLYY1WEqt1o0lV7W17xoTbqyrYLYYukqvNJVeu1cE8sq2C2GLpKrzSVX/wCDaYJ5ZcTCbYvhgVYWuPv/AIRpa9r/AAbJPy1T/rYWwWxe1+lr2v8ABpa9r/Bsk/JVy2FsXwWxe1+lr2v8Glr2v8GyT8tXLYTMLbDjC17X+FzPqvNq/nmn/WQljZ9V5n1Xm0wyyBj59V5n1Xm0wyyBj59V4m0xS9q4nvp/gfEYX1d84Hie+n+B8RhfV3zju2H2D7A+ecrfjtf46Wib3K347X+OlonWo7YcWvukAaZAAU16ltcr1LbUPSjoAK2AAKqVKqNSM1dEgDAAAqpUqqUSeisBGEJQkBE6pSidQKAGnoAAAAor1KVValYetHRAkVpAlAAkBCQBAkBCqj+SE0fySUq6LoDL5wAAAFqrWpVVa0NPojogSKqBIC3UhNWtCvSOgAKAAQvLMLySxWADAAAAiva+J75AwPiML6u+cDxPfIGB8RhfV3riOmk+yE/YHzxlb8dr/HS0be5W/Ha/x0tE61HbDi190gDTIAIpr1La5XqW2oetHQAVsAAVUqVUakZq6JAGAABVSpVUok9FYCMAACJ1JROoFADT0AAAAUVqVValYetHQAVoAAAAAAAAVUfyUqqNaJV0XAGXzgAAALVWtCataGn0R0AFUABRVrUqqtalYekdAAaAAIXlmF5JedYAMAAACK9r4nvkDA+Iwvq71wXE98gYHxGF9XeuI6YAD56yt+O1/jpaJt8r8JMcP1/jpaHSVOxRT/WHJr0pmqV8WNJUaSpraziqXxY0lRpKjaYql2vUtqc+Z/oWrEN00TCoU2lpZbKhTaWliypVGpbtM6YLJNMyui1nyZ8lkxyui1nyZ8ljHK6qpWM+TSVQWSdKZZQxdNUaapNsphqZQxdNUaao2yYamUTqYumqNNUbZMNS8LOfJnytlxyvCznyZ8ljHK8haz5M+Sy45V1qVM1TKLSzdNMxCsUWlqrZWKLS0LSrFFqbQsqFJaFlQpAsqVUfyWyKpgSaZmGQLOklGklmzzxSvixpJNJJYxSvixpJTpJLGKU1a0Lc1zMozpas9oomy6LWdJnSWXZK6LWdJnSWNkqqtakmbUK1EWSIBUiAEwvLCrPklmqmZXRaz5M+UszsldFrPkz5LGyV0Ws+QsmyXuHE98gYHxGF9XeuC4nvkDA+Iwvq75w3SQCQfOGWHx+v8dLQt9lh8fr/AB0tC7VHbD4auoA0gABGtUpjWqGZABAABTOtUpnWLAANAACJSidakIAFAAAAVAIyAAAAACgAAABACJBAJAARKUAACgAAAKJ1hOsVuAAAAAAAAAAAAAAAAAAah7lxPfIGB8RhfV3zgeJ75AwPiML6u9cJ9SRAD5xyw+P1/jpaFvssPj9f46Whdqjth8NXUAaQAAjWqUxrVDMgAgAApnWqUzrFgAGgABEpROtSEACgAAAKgEZAAAAABQAAAAgIEShKASAAhKJAAFAAAAUTrCdYrcAAAAAAAAAAAAAAAAAA1D3Lie+QMD4jC+rvXBcT3yBgfEYX1d64T6gAHzjlh8fr/HS0LfZYfH6/x0tA7Wn2w+GrqkQNokQWgmNapTEptgZlIi2C2EEiLYLYUSpnWm2ETKEAi0tGkiLS0EqZSiVIABQAAAFQhKMgAAAAAoAAAAQAiRACRFoCUSWgAi0tVUiLQEiLS0FM6wnWDcAf1AAAAAAAAAARaCRFpaCRFpaCRFoNQ9z4nvkDA+Iwvq75wPE98gYHxGF9XeuE+pKAB845YfH6/wAdLQN/lh8fr/HS0Dt0dsPhq6gDSAAAAoAgAAAAAAAAIShQAFABAAEgCAAAAEJRCRABAAAAAAFAAESlCgAAAAAAlCQQkEAAFM60JnWhW46AAAAEqUoVQAAAAAHunE98gYHxGF9XfOB4nvkDA+Iwvq75wX1ggB845YfH6/x0tA3+WHx+v8dLQO3R2w+GrqANIAAACgCAAAAAAAAAhKFAAUAAAESAIAAAAQlEJEAEAAAABCQUAAQlEqAAAAAACUJBCQQAAUzrQmdaFbjoAAAAhCZQqgAAAAAPdOJ75AwPiML6u9cFxPfIGB8RhfV3rgvrAAfOOWHx+v8AHS0Df5YfH6/x0tA7dHbD4auoA0gAAAKAIAAAAAAAACAUAAAAABUgDIAAABCUQkQAQAAAAABQABEpRKgAAAAAAlCQAEAAFM60JnWhW46AAAAIlCUKoAAAAAD3Tie+QMD4jC+rvXBcT3yBgfEYX1d64L6wAHzVlnhppyhrj/8AnS5/lFX+w3eWnzFX+OlzzuafbDOOnhe5RJyif9hZG7Jjp4XuUT/sGnlZAx08L0YeZlVpp7liNaosk6dK7pp7jTT3LQWNlK7pp7jTT3LQWNlK7pp7jSytBZNlK7pZNLK2JY2Urmlk0srYtjZSuaWTSytkJZNlK5pJTpJWwNkLmkk0krYGyFekk0k2KCdQbITp57jTz3LM6xbN46eF7Tyaee5ZCxjp4XtPPduNPPduWQsY6eF7Tz/sHKJ7tyyFjFTwvconu3HKJ7tyyJYxU8L3KJ7jlE9yyFjFTwvconu3I5TP+wtKJ1lljSo4X+VVf7Byqr/YWBbNYqOF/lVX+wcqq7tywFjFRwv8qq7tyYxmZ/8Axjpp1lknSo4ZGnk08rIWZx08L2nk08rIhjp4XtPJp5WRTHTwu8pmLtyOVVf7CxOsLNYqOF/lU9245VV3blgLLio4X+U1d245VV/sLCCxio4ZHKJn/wDDlE/7CwBjp4XuUT/sHKJ/2FkDHTwv8on/AGDlErAGOnhenGJRp5WkBGnTwvaeTTysguOnhe08mnlZAx08L2nkWQMdPD6C4nvkDA+Iwvq75wPE98gYHxGF9XfOAghID5ky0+Yq/wAdLnnQ5afMVf46XPO5p9kKANgACY1qlMa1QzIAIAAEBAJAEAACAgEgIgAATqCdQq1OsJ1itgAAAAAoAAAAonWrUTrFgAGgABNOtCadYkqgBgAAABROsJ1g3AAKAAACAAAACEoFgAAAAAFfQXE99P8AA+Iwvq75wPE99P8AA+Iwvq75wHkAA+ZMtPmKv8dLnnQ5afMVf46XPO5p9kKANgACY1qlMa1QzIAIAAEBAJAEAACAgEgIgAATqCdQq1OsJ1itgAAAAAoAAAAo+6tR9xYABoAATGtCY1iSqAGAAAAFE6wnWDcAAoAAAIAAAAISgWAAAAAAV9BcT30/wPiML6u+cDxPfT/A+Iwvq75wHkAA+Ysta6Yyirtn/wAdLns+m+G0y5qmMpa/6z/8VDm86rane7mnP9Ye8aN4bDPpvgz6b4a/OqvneZ1W1O9q64fbYZ9N8GfTfDX51W1O8zqtqd5cw+2xium3XCrSUbUNZnVbU7zOq2p3l0nQ9tnpKNqDSUbTWZ1W1O8zqtqd5cwe2z0lG1BpKNqGszqtqd5nVbU7y5g9tnpKNqCMJRtQ1mdVtTvRn1bU7y5g9tppKNqDSUbUNXn1bU7zPq2p3l0/P7bTSUbUGko2oavPq2p3mfVtTvLn5/baaSjahOko2oarPq2p3omuraneXX8/tttLRtQaWjahqc+ranejPq2qt6XPze230tG1BpaNqGpz6tqreZ9W1VvLn5vbbaWjagnC0Wfyhqc+raneZ9W1O8ufm9tln0264M+m9r4qqs/lO8zqr53rdcPtsM+m+DPpva/Oq2p3mdVtTvLmH22GfTeZ9N7X51W1O8zqtqd5cw+2wz6bzPpva/OqvnenOm+S5h9s/PpvM+m9gZ03yZ03yXMLPz6bzPpvhgZ1V87zOqvneXMLPz6b4UTXTbrhh503ytzVVbrkusaLYZ9N8GfTtQ1+dVfKM6q+d5dcLY59N8GfTfDX51V87zOqvneXMLYZ9N8JjCU2/wAoa7OqvlFVVVn8p3lzD7bTSUbUI0lG1DU59W1O8z6tqd5c/P7bbSUbUGko2oanPq2p3mfVtTvLn5/bbaSjahOko2oajPq2p3mfVtTvLn5/baThKNqDSU7UNbFVW1O8zqtqd5dcPtstJTtQZ9O1DW51W1O8zqtqd5cw+2y0lO1BpKdqGtzqtqd5nVXzvLmH22Wkp2oM+m+Gtzqtqd5nVbU7y5h9tln03wZ9O1DW51W1O8zqtqd5dMHtss+m+DPpvhrc6raneZ1W1O8uYPbZZ9O1CnSUbUNfNVW1O9bz6tqd5dY0fbaaSjag0lG1DV59W1O8z6tqd5dcHttNJRtQaSjahq8+raneZ9W1O8uYPbaaSjagavPq2p3hcwe30zxPfT/A+Iwvq75wPE99P8D4jC+rvnBfGH2D7A+VcuvmWv8AFQ5p0uXXzLX+KhzTt0dsPup6ADSgAAAAAAACEoAAAAARKUSLCAEUAAAUVxqCNQMgAAACUJAAEAAFudatROsWAEDSQAFNWpKKtQKQEaAFAAEwlEJEAAAAAAAAAARKhXKgWABFAAAAfTXE99P8D4jC+rvnA8T30/wPiML6u+cNyw+wfYHyrl18y1/ioc06XLr5lr/FQ5p26O2H3U9ABpQAAAAAAABCUAAAAAIlKJFhACKAAAKK41BGoGQAAABKEgACAAC3OtcW51iwADQAApq1KlNWoFIA0AAAAmEohIgAAAAAAAAACJUK5UCwAIoAAAI+muJ76f4HxGF9XfOB4nvp/gfEYX1d84bmB9g+wPlXLr5lr/FQ5pvcvMYzcp8JFk//ABUejmeU90u1RP8AWHQppm0MkY3Ke6TlPdLd12SyRjcp7pOU90lzZLJGNynuk5T3SXNkskY3Ke6TlPdJc2SyRjcp7pOU90lzZLJQx+U90o5T3SXNkskY3Ke6TlPdJc2SyRjcp7pOU90lzZLJRLH5T3SnT2/aS67ZXhZ0xpkNsrws6Y03cG2V4WdMaYNssmNQxuU90nKe6VumyWSMblPdJynukubJZIxuU90nKe6S5slkpYvKe6U8p7pLmyWSMblPdJynukumyWSMblPdKOU90lzZLKW51rPKe6VPKO6S7UUSyELHKO6TlHdKXXbLIGPyjuk5R3SXNsshTVqWeUd0k4e37SXNsrgtaXuNL3C2ldFrS9xpe4LSui1pe40vcFpXoSsaaz7SafulbptlfFjT90mn7pLm2V8WNP3SafukubZXxY0/cafuLm2V8WNP3SafukubZXxY0/cafukubZXpUKNP3KdIl1imV0WtIaUutpXRa0ppS5aV0WtKF0tL6f4nvp/gfEYX1d84Hie+n+B8RhfV3zhuWH2D7A+RsvvmjCfio9HMOny++aMJ+Kj0cw7FHbDq0dsADbQAAAAAAAAhKAABQABVSpVUiSqAVAAAAFACKAAAAAAAAAAISgUAAAAICAVAKgAAACkBFAAAAAAAAAAAAAAAAABH1HxPfT/A+Iwvq75wPE98gYHxGF9XfOI5AfYPsD5Gy++aMJ+Kj0cw6fL75own4qPRzDsUdsOrR2wANtAAAAAAAACEoAAFAAFVKlVSJKoBUAAAAUAIoAAAAAAAAAAhKBQAAAAgIBUAqAAAAKQEUAAAAAAAAAAAAAAAAAEfUfE99P8AA+Iwvq75wPE/8gYHxGF9XfOI5AfYPsD5Gy++aMJ+Kj0cw6jL75own4qPRy7sUdsOrR2wANtAAAAAAAACEoAAFAAFVKlVSJKoBUAAAPsCgBFAAAAALJACySyQAsLAEJslFkigWSWABYWAEFiYgEhYWKgFhYAFgCkTYixFAsLAAskskATZJZIIE2SWSCBNklkggTZJZIIE2SWSCBNklkggTZII+ouJ76f4HxGF9XfOB4nvp/gfEYX1d84jkB9g+wPkzL2I/wCp8J+Kj0cxZDp8vPmfCfio9HMO1p9sOnT2wWQWQkaVFkFkCQRMQiyEyCosi4si5ICLIuLIuSAiyLkxEBAFkFkJBEWQWQkFRZCqmIQmkSU2QWQkERZBZCQEWQWQkBTZFxZFyQEWRcWRckBFkXFkXJAKYi5VZFyKVSoiyLiyLkgIsi4si5ICLIuRZFypAIsi4si5IgiyLiyLkgIsi5MUxbqExrBObFxmxckVlGbFxmxckBGbFxmxckAimLoTmxdBCREZtN0GbTdCQEZsXQZtN0JARFNN0JzKbo3JhIKcym6DMpuhUBdTmU3QZlN0blQF1OZTdG5VmU3RuFSopzKbo3GZTdG5UApzKbo3GZTdG5UApzKbo3CoB9HcT30/wPiML6u+cDxPfT/A+Iwvq75wXwh9g+wPkzL35nwn4qPRzLpsvPmfCfio9HMu1p9sOnT2wANKAAiQkFAAQkACAgEgCAACYQmkJVACAAAAIAAAAABNKpTSqVAAAABCUAAIAACY1oTGsFQCsgAAAJjUlEakiACgAgmEohIgAAAAqUqlAQkQAAAFfR3E99P8D4jC+rvnA8T30/wPiML6u+cF8IfYPsD5My9+Z8J+Kj0cy6fLyJ/6nwn9P/FR6OYsm52tPth0qe2ALJuLJuaUCybiybgQJmJulFk3DQhNk3SWTcAFk3Fk3AEFk3SmIm6QAsm4sm4ZAsm4sm4BNKLJuVUxNwspCybiybhkCybpLJuACybiybgQFk3Fk3SAFk3SWTdIAWTcWTcCaVSKYm5Nk3KAWTcWTdIAWTcWTcAhNk3SiybpACybpLJuQAsm4sm6QExrRZN0piJt1CKgsm4sm5UAsm4sm4ALJuLJuBMJIibiybhALJuLJuACybiybgTCURE3Jsm6RALJuksm4ALJuksm6QFSmybpVWTcoBZN0lk3CAWTcWTcAFk3SCvo7ie+n+B8RhfV3zgeJ76f4HxGF9XfOC+EAB835Y4hi2EygrqqwUTOjp+8tBzZivVRvl1GV3x6v8dLROvR2w5detqRVMRVP1ic24p1Mb5ObcU6mN8ssaYz6vlP1ic2Yr1Ub5ObcU6mN8ssDPq+U/WJzbinUxvk5sxTqY3yy0hn1fKfrD5sxTqY3yc2Yr1Mb5ZgGfV8p+sPmzFOpjfJzZinUxvlmAZ9Xyn6w+bMU6mN8pjgzFOpjfLLIEnX1fKfrE5sxTqY3yc2Yp1Ub5ZgXTPq+U/WHzZinVRvk5sxTqo3yzAuZ9Xyn6w+bMU6qN8pjgzFOpjfLLILmfV8p+sXm3FOpjfJzbinUxvlliXTPq+U/WJzbinUxvk5txTqY3yywuZ9Xyn6xObMU6mN8nNuKdTG+WWFzPq+U/WJzbinUxvk5txTqY3yywuZ9Xyn6xObcU6mN8nNuKdTG+WWFzPq+U/WJzbinUxvk5txTqY3yywuZ9Xyn6xObcV6mN8nNuK9VG+WWFzPq+U/WJzbivVRvk5txXqo3yywvJn1fKfrE5txXqo3yc24r1Ub5ZYXkz6vlP1ic24r1Ub5ObcV6qN8ssLmfV8p+sTm3FeqjfJzbivVRvlmILpn1fKfrE5txXqo3yc24p1Ub5ZgXXPq+U/WHzbivVRvk5txXqo3yzAumfV8p+sTm7FeqjfJzdivVRvllhcz6vlP1ic3Yr1Ub5ObsV6qN8ssLmfV8p+sTm7FeqjfJzdivVRvllhcz6vlP1ic3Yt1Ub5Tzfi3VRvllBeTPq+U/WLzfi3VRvk5vxbqo3yygvJn1fKfrF5vxbqo3yc34t1Ub5ZQXkz6vlP1i834t1Ub5Ob8W6qN8soLyZ9Xyn6xeb8W6qN8nN+LdVG+WUF5M+r5T9YvN+LdVG+Tm/FuqjfLKC8mfV8p+sXm/FuqjfJyDFuqjfLKC8mfU8p+sXkGLdVG+TkGLdVG+WUF5M2p5T9YvIMW6qN8nIMW6qN8soLyZtTyn6xeQYt1cb5GUF5M2p5T9excT30/wPiML6u+cDxPfT/A+Iwvq75x3bD7B9gfPGV3x6v8dLRN7ld8er/HS0Tr0dsONX3SANMAACUAJEJAAAIQmBJSAiAABAQCQBAAAAAAAAAAAAAAAAAAEggRIAAAAAAAAAACAAAAAAAAAAAAAAAAAAD2Lif+QMD4jC+rvnA8T30/wPiML6u+ch+gD7B9gfPGV3x6v8dLRN7ld8er/HS0Tr0dsONX3SANMAACUJAAAAAICBJSAiAABAQCQBAAAAAAAAAAAAAAAAAAEoSgRIAAAAAAAAAACAAAAAAAAAAAAAAAAAAD2Lie+n+B8RhfV3zgeJ76f4HxGF9XfOQ/QAH2B885W0zz9X+Olos2XQZWfHa/x0tG61E/1hw9Sqd0rebJmyuDV2N0rebJmyuBc3St5slkrgXN0rdkli4Fzct2Fi4Fzct2SmIVhc3KLCxWIl1NhYqAupsLFSJC6BIogSAgSAgAUAAAALCNaoRTYWKhC6mwsVAXU2CqUAAKAAAIAAFAAAAABAAAtAEiEgAAAAAAAAAAAA9i4nvp/gfEYX1d84Hie+n+B8RhfV3zjv0AfYPsD58ys+O1/jpaNvMrPjtf46WjdWjthwdTvkAaYAAAAAAAAAAAAAAESlEgACgAAAIAVQAAACNapTGtUiSACAACEygUAAAAQlAACqAAAAAAAAAAJQkQQkAAAAAAAAAAB7FxPfT/AAPiML6u+cDxPfIGB8RhfV3zjv0AfYPsD58ys+O1/jpaNvMrPjtf46WjdWjthwdTvkAaYAAAAAAAAAAAAAAESlEgACgAAAIAVQAAAExrSpjWqRJABAABCUCgAAACJSiQAFUAAAAAAAAAAShIgCASAAAAAAAAAD2Lie+n+B8RhfV3wOO/QB9gB8+ZWfHa/wAdLRg6tHbDgandIA2yAIACrYACwAFgALAAgAAiQAALNABYACwgAAAAACNaoAABkAAQBZoALAAWBAFgAAAAAAAAAAAASAAAAAAAgAAAAAK//9k=;" vertex="1" parent="1">
          <mxGeometry x="-138" y="1284" width="77" height="77" as="geometry" />
        </mxCell>
        <mxCell id="bQVITt6lPZ6QNUbudgDY-2" value="(11x11x2)" style="text;html=1;strokeColor=none;fillColor=none;align=center;verticalAlign=middle;whiteSpace=wrap;rounded=0;fontSize=22;fontStyle=1;fontFamily=Times New Roman;" vertex="1" parent="1">
          <mxGeometry x="-189.5" y="1245" width="180" height="30" as="geometry" />
        </mxCell>
        <mxCell id="bQVITt6lPZ6QNUbudgDY-3" value="" style="endArrow=classic;html=1;rounded=0;shape=flexArrow;strokeWidth=4;fontFamily=Times New Roman;" edge="1" parent="1">
          <mxGeometry width="50" height="50" relative="1" as="geometry">
            <mxPoint x="28" y="1327" as="sourcePoint" />
            <mxPoint x="68" y="1327" as="targetPoint" />
          </mxGeometry>
        </mxCell>
        <mxCell id="bQVITt6lPZ6QNUbudgDY-4" value="64 kernel filter (8x8)" style="text;html=1;strokeColor=none;fillColor=none;align=center;verticalAlign=middle;whiteSpace=wrap;rounded=0;fontSize=22;fontStyle=1;fontFamily=Times New Roman;" vertex="1" parent="1">
          <mxGeometry x="-39" y="1377" width="180" height="29" as="geometry" />
        </mxCell>
        <mxCell id="bQVITt6lPZ6QNUbudgDY-5" value="" style="shape=cube;whiteSpace=wrap;html=1;boundedLbl=1;backgroundOutline=1;darkOpacity=0.05;darkOpacity2=0.1;size=85;fillColor=#ffe6cc;strokeColor=#d79b00;" vertex="1" parent="1">
          <mxGeometry x="161" y="1233" width="154" height="144" as="geometry" />
        </mxCell>
        <mxCell id="bQVITt6lPZ6QNUbudgDY-6" value="(4x4x64)" style="text;html=1;strokeColor=none;fillColor=none;align=center;verticalAlign=middle;whiteSpace=wrap;rounded=0;fontSize=22;fontStyle=1;fontFamily=Times New Roman;" vertex="1" parent="1">
          <mxGeometry x="115" y="1185" width="180" height="30" as="geometry" />
        </mxCell>
        <mxCell id="bQVITt6lPZ6QNUbudgDY-7" value="" style="endArrow=classic;html=1;rounded=0;shape=flexArrow;strokeWidth=4;fontFamily=Times New Roman;" edge="1" parent="1">
          <mxGeometry width="50" height="50" relative="1" as="geometry">
            <mxPoint x="376" y="1331" as="sourcePoint" />
            <mxPoint x="416" y="1331" as="targetPoint" />
          </mxGeometry>
        </mxCell>
        <mxCell id="bQVITt6lPZ6QNUbudgDY-8" value="Reshape" style="text;html=1;strokeColor=none;fillColor=none;align=center;verticalAlign=middle;whiteSpace=wrap;rounded=0;fontSize=22;fontStyle=1;fontFamily=Times New Roman;" vertex="1" parent="1">
          <mxGeometry x="311" y="1379" width="180" height="30" as="geometry" />
        </mxCell>
        <mxCell id="bQVITt6lPZ6QNUbudgDY-9" value="" style="shape=cube;whiteSpace=wrap;html=1;boundedLbl=1;backgroundOutline=1;darkOpacity=0.05;darkOpacity2=0.1;size=85;fillColor=#f8cecc;strokeColor=#b85450;" vertex="1" parent="1">
          <mxGeometry x="434" y="1280" width="148" height="99" as="geometry" />
        </mxCell>
        <mxCell id="bQVITt6lPZ6QNUbudgDY-10" value="(16x64)" style="text;html=1;strokeColor=none;fillColor=none;align=center;verticalAlign=middle;whiteSpace=wrap;rounded=0;fontSize=22;fontStyle=1;fontFamily=Times New Roman;" vertex="1" parent="1">
          <mxGeometry x="374" y="1228" width="180" height="30" as="geometry" />
        </mxCell>
      </root>
    </mxGraphModel>
  </diagram>
</mxfile>
